<?xml version="1.0" encoding="UTF-8"?>
<svg width="1200pt" height="1200pt" version="1.1" viewBox="0 0 1200 1200" xmlns="http://www.w3.org/2000/svg">
 <g>
  <path d="m257.62 584.62-92.277-16.551c-15.289-2.7422-29.906 7.4297-32.648 22.719-2.7422 15.289 7.4297 29.906 22.719 32.648l92.277 16.551c15.289 2.7422 29.906-7.4297 32.648-22.719s-7.4297-29.906-22.719-32.648z"/>
  <path d="m296.99 390.1-75.445-55.652c-12.5-9.2188-30.109-6.5625-39.328 5.9375s-6.5625 30.109 5.9375 39.328l75.445 55.648c12.5 9.2188 30.109 6.5625 39.328-5.9375 9.2227-12.496 6.5625-30.105-5.9375-39.324z"/>
  <path d="m366.57 281.62c6.7148 14.008 23.512 19.918 37.52 13.203s19.918-23.512 13.203-37.52l-40.523-84.535c-6.7148-14.008-23.512-19.918-37.52-13.203-14.008 6.7148-19.918 23.512-13.207 37.52z"/>
  <path d="m1069.5 588.7c-2.7422-15.289-17.359-25.461-32.648-22.719l-92.277 16.551c-15.289 2.7422-25.461 17.359-22.719 32.648 2.7422 15.289 17.359 25.461 32.648 22.719l92.277-16.551c15.289-2.7422 25.461-17.359 22.719-32.648z"/>
  <path d="m946.25 428.67 72.133-59.883c11.949-9.9219 13.598-27.652 3.6758-39.605-9.9219-11.953-27.652-13.598-39.605-3.6758l-72.133 59.883c-11.949 9.9219-13.598 27.652-3.6758 39.605 9.9219 11.953 27.652 13.598 39.605 3.6758z"/>
  <path d="m851.27 159.57c-14.008-6.7148-30.805-0.80078-37.52 13.203l-40.523 84.539c-6.7148 14.008-0.80078 30.805 13.203 37.52 14.008 6.7148 30.805 0.80078 37.52-13.203l40.523-84.539c6.7188-14.008 0.80469-30.805-13.203-37.52z"/>
  <path d="m600.52 225h0.12891c15.297-0.12109 27.598-12.613 27.48-27.91l-0.72266-94.602c-0.12109-15.301-12.617-27.609-27.918-27.488h-0.12891c-15.297 0.12109-27.598 12.617-27.48 27.91l0.72266 94.602c0.12109 15.301 12.617 27.609 27.918 27.488z"/>
  <path d="m843.69 525.18c-2.3086-19.52-14.09-36.547-31.539-45.566-13.531-6.9805-28.902-8.4258-43.48-4.1758l23-45.016c15.691-30.727 3.5234-68.609-27.129-84.449-14.977-7.7266-32.043-9.1445-48.082-3.9844-4.8516 1.5586-9.3867 3.7266-13.625 6.3203-0.40234-4.6289-1.2617-9.2461-2.707-13.781-5.0977-15.996-16.133-29.051-31.047-36.75-14.914-7.6992-31.941-9.1367-47.938-4.0391-5.9805 1.9062-11.547 4.6445-16.582 8.1016-2.1484-20.348-14.121-39.273-33.617-49.344-30.789-15.875-68.785-3.7891-84.695 27l-57.477 111.29c-23.566 10.547-42.793 29.766-53.098 54.723l-42.398 102.65c-13.832 33.473-8.918 72.273 12.816 101.25l120.68 160.91c1.207 1.6094 1.875 3.5977 1.875 5.6133v207.7c0 20.023 12.645 37.812 31.457 44.273 24.91 8.5703 65.113 18.75 115.53 18.75 35.871 0 76.922-5.1562 121.29-19.711 18.988-6.2344 31.75-24.07 31.75-44.383v-167.86c0-7.918 3.3672-15.508 9.2461-20.828 21.672-19.637 59.035-63.023 65.828-133.93v-166.18c0-1.3906 0.13672-6.8984-0.0625-8.5859zm-94.32-11.594c4.9062-9.5508 13.258-16.617 23.492-19.895 10.234-3.25 21.141-2.3633 30.68 2.582 11.902 6.1445 19.949 17.77 21.523 31.102 0.11328 0.91406-0.0625 5-0.0625 6.3906l0.003906 11.066 0.042969 154.21c-6.1445 63.719-40.055 103.12-59.711 120.93-0.86719 0.78516-1.5156 1.7461-2.3164 2.5898-8.0664 8.4883-12.82 19.625-13.012 31.379-0.003906 0.25391-0.082031 0.5-0.082031 0.75781v167.86c0 12.195-7.5703 22.871-18.84 26.57-101.52 33.309-184.47 14.941-224.88 1.0547-11.25-3.8711-18.805-14.539-18.805-26.551v-207.71c0-6.043-2.0039-12.039-5.6289-16.863l-120.68-160.9c-17.781-23.711-21.797-55.461-10.492-82.848l42.398-102.65c4.9414-11.961 12.387-22.309 21.574-30.574 8.0039-7.2031 17.41-12.641 27.578-16.336 9.0859-3.3008 18.754-5.2539 28.824-5.2539h25.828c14.703-0.003906 30.988-0.007812 47.344-0.011719h1.1484c6.6875 0 13.363-0.003906 19.961-0.003906h1.1484c5.6758 0 11.254-0.003906 16.715-0.003906l-6.3086 12.105c-2.5547 4.8906-2.3711 10.629 0.49609 15.344 2.8555 4.7148 7.8555 7.5352 13.375 7.5352h56.434c0.13281 0 0.26172-0.03125 0.39453-0.03125-0.67578 1.5234-1.4023 3.0273-2.2031 4.4961-0.0625 0.11719-0.12109 0.24219-0.18359 0.35937-2.9141 5.2578-6.6133 10.117-11.047 14.43-11.867 11.555-27.504 17.945-44.148 17.551l-43.387-0.38281c-9.4062 0.10938-18.18 4.7266-23.453 12.469-0.45312 0.66797-1.0508 1.1992-1.4492 1.9141l-25.871 46.383-2.6289 4.7109c-4.2812 7.6797-4.7617 16.715-1.3086 24.805 0.007812 0.019531 0.007812 0.042969 0.019531 0.0625 1.5898 3.707 3.9609 6.8789 6.8125 9.5078 2.4922 2.2969 5.4297 4.0312 8.6406 5.293 1.0625 0.41406 2.0703 0.93359 3.1914 1.2227 0.37891 0.097656 12.289 3.2617 28.398 10.07 2.8008 1.1836 5.7383 2.4961 8.7539 3.9023 2.7773 1.2969 5.625 2.6875 8.5234 4.1797 9.1133 4.6914 18.652 10.359 27.719 17.074 2.6406 1.957 5.2344 4 7.7695 6.1367 0.96484 0.8125 1.9141 1.6406 2.8594 2.4805 1.6758 1.4922 3.3203 3.0234 4.9219 4.6016 1.7344 1.707 3.4141 3.4648 5.043 5.2695 4.1758 4.6211 7.9961 9.5547 11.273 14.852 1.8086 2.918 3.4141 5.9648 4.875 9.0898 1.3398 2.8633 2.5742 5.7852 3.5859 8.8281 2.9492 8.8828 4.418 18.539 3.9141 29.004v72.465c0 5.1836 4.1914 9.375 9.375 9.375s9.375-4.1914 9.375-9.375v-11.07l-0.007812-60.938c0.67578-14.016-1.4961-26.695-5.6172-38.215 1.8594-1.6992 3.6406-3.5117 5.1406-5.6328l3.8398-5.4141c4.1367-0.46484 8.2617-1.1953 12.32-2.4961 4.0039-1.2852 7.8203-2.9453 11.414-4.9414 0.49609 7.6367 2.4648 15.09 5.7773 21.957l-3.8711 10.879c-4.9961 13.988-0.69922 29.27 9.8516 38.93 2.3008 2.1094 4.8008 4.0391 7.6797 5.5273 5.2539 2.7109 10.93 4.0117 16.555 4.0117 11.48 0 22.742-5.4219 29.727-15.27l9.3438-13.18c0.57031-0.16406 1.1484-0.22656 1.7148-0.40625 15.031-4.8164 27.273-15.215 34.469-29.262l21.004-40.988c2.3633-4.6055 0.53906-10.254-4.0664-12.617-4.6133-2.3633-10.262-0.53906-12.617 4.0664l-21.004 40.988c-2.1562 4.2148-5.0781 7.8398-8.4336 10.977-0.125-1.3477-0.20703-2.6953-0.53125-4.0273-1.8945-7.7656-7.0508-14.32-14.152-17.988l-1.3516-0.69922-20.527-10.609c-7.0938-3.6523-15.398-4.0742-22.789-1.1523-3.0195 1.1914-5.6719 2.9961-8.0547 5.0977-0.003906-6.1953 1.25-12.465 4.2734-18.34l0.67578-1.3125c0.55469-0.96094 1.1484-1.8945 1.6602-2.8906l23.16-45.324zm-144.99-113.34h66.68c-0.21875 0.57422-0.52344 1.0977-0.78516 1.6484-1.8633 3.9688-4.6641 7.3398-8.1172 9.8516-0.98438 0.71484-2.0195 1.3555-3.0938 1.9258-0.097656 0.050781-0.18359 0.11328-0.28125 0.16406-1.9727 1.0156-4.082 1.7422-6.2734 2.2227-1.7617 0.38672-3.5547 0.65625-5.3984 0.65625h-51.305l8.4609-16.246zm-23.531 188.24c-4.5625-2.793-9.1172-5.3789-13.59-7.7227l2.3945-3.3789c3.9375-0.86328 7.8125-1.9805 11.516-3.5742-0.6875 4.9062-0.78906 9.8242-0.32031 14.676zm-63.609-41.758c0.68359-1.9336 2.0898-3.3555 3.7969-4.3945 0.44141-0.26953 0.78906-0.65625 1.2852-0.85156 2.3906-0.95312 5-0.84375 7.2969 0.36719l21.883 11.309c2.3164 1.1914 3.9258 3.2422 4.5391 5.7578 0.089844 0.37891-0.011718 0.74609 0.03125 1.125 0.24219 2.1484-0.13672 4.2852-1.4141 6.0898l-4.5547 6.4258c-18.715-8.1602-33.168-12.008-34.941-12.465-0.89844-0.23047-1.6641-0.57031-2.3398-0.96484zm57.234 9.3633c-0.097656-0.53516-0.082031-1.0781-0.21094-1.6094-1.8945-7.7656-7.0508-14.32-14.152-17.988l-21.883-11.309c-4.7383-2.4453-10.043-3.3125-15.266-2.8164l15.043-26.977c1.6758-3.0039 5.2383-4.7773 8.3125-4.7617l43.387 0.38672c11.262 0.1875 22.297-2.0547 32.5-6.3672l-26.711 51.723c-4.7266 9.1484-12.301 15.766-21.02 19.719zm31.895 50.172 2.8906-8.1133c0.85938-2.4336 2.6719-4.3047 5.082-5.2461 1.0625-0.42188 2.1602-0.63281 3.25-0.63281 1.3906 0 2.7656 0.32812 4.0469 0.99609l21.883 11.297c2.3164 1.1914 3.9258 3.2422 4.5391 5.7695 0.61328 2.5273 0.11719 5.082-1.3828 7.207l-6.3984 9.0234-7.7852 10.98c-4.1406-6.8438-8.9922-13.16-14.328-18.984-3.3164-3.6211-6.8047-7.0586-10.438-10.301-0.52344-0.46484-1.0547-0.91016-1.582-1.3711zm130.45 51.488c2.3164 1.1914 3.9258 3.2422 4.5391 5.7578 0.61328 2.5273 0.11719 5.0898-1.3828 7.2148l-2.0508 2.8945-13.172 18.578-0.34766 0.49219c-5.0352 7.0938-14.641 9.457-22.383 5.4375-1.5977-0.82812-2.9727-1.918-4.1992-3.1289-4.5273-4.4727-6.3789-11.156-4.5117-17.449 0.089844-0.30469 0.12891-0.61719 0.23438-0.91797l6.8438-19.238 2.1562-6.0586c0.87891-2.4453 2.6836-4.3125 5.0898-5.2656 1.0625-0.41016 2.168-0.62109 3.2578-0.62109 1.3828 0 2.7656 0.32813 4.0469 0.99609l16.695 8.6289zm-14.613-297.92c4.4492-1.4297 9.0195-2.1328 13.559-2.1328 6.9414 0 13.832 1.6562 20.18 4.9336 21.504 11.113 30.047 37.691 19.035 59.254l-70.055 137.1-23.145 44.969c-3.8555 6.9531-9.3672 12.629-16.094 16.574 1.457-4.707 1.7891-9.7266 0.60156-14.621-1.8945-7.7734-7.0508-14.328-14.152-18l-21.883-11.297c-7.0586-3.6445-15.383-4.0742-22.789-1.1445-3.0273 1.1914-5.6836 3-8.0664 5.1094 0.26562-6.1172 1.7109-12.262 4.6719-18.055l69.473-135.96c6.6289-4.9297 11.969-11.617 15.031-19.609 1.3711-3.5664 1.4609-7.3789 0.60938-10.996l4.8945-9.582 2.0195-3.9141c0.066406-0.12891 0.11328-0.26172 0.17969-0.39063l0.16016-0.3125c5.3711-10.52 14.527-18.312 25.77-21.93zm-95.359-48.227c11.242-3.5781 23.18-2.5742 33.637 2.8398 10.473 5.4023 18.211 14.559 21.789 25.781 3.5508 11.16 2.5664 23.031-2.7656 33.453l-2.0195 3.9531-2.2617 4.3789c-1.3555-0.30859-2.7422-0.51172-4.1602-0.51172h-72.363c-0.57031 0-1.1094 0.12891-1.6562 0.23047-6.6992 0.003907-13.727 0.003907-20.953 0.007813l24.973-48.348c5.3984-10.473 14.555-18.207 25.781-21.785zm-123.93-23.504c11.152-21.598 37.812-30.102 59.426-18.941 21.605 11.152 30.102 37.812 18.941 59.418l-27.457 53.16c-19.555 0.003906-39.422 0.007813-57.027 0.011719h-25.828c-5.8359 0-11.57 0.53516-17.188 1.4727z"/>
 </g>
</svg>
